<?xml version="1.0" ?><svg style="enable-background:new 0 0 64 64;" version="1.1" viewBox="0 0 64 64" xml:space="preserve" xmlns="http://www.w3.org/2000/svg" xmlns:xlink="http://www.w3.org/1999/xlink"><style type="text/css">
	.st0{fill:#231F20;}
	.st1{fill:none;stroke:#231F20;stroke-width:2;stroke-miterlimit:10;}
	.st2{fill:#FFFFFF;}
</style><g id="Grid"/><g id="Proyektor"/><g id="Laptop"/><g id="Papan"/><g id="Kursi"/><g id="Meja"/><g id="Book"/><g id="News"/><g id="Note"/><g id="Calculator"><g><g><path class="st0" d="M49.5,58h-35c-0.8,0-1.5-0.7-1.5-1.5v-49C13,6.7,13.7,6,14.5,6h35C50.3,6,51,6.7,51,7.5v49     C51,57.3,50.3,58,49.5,58z M15,56h34V8H15V56z"/></g><g><path class="st0" d="M45.5,22h-27c-0.8,0-1.5-0.7-1.5-1.5v-9c0-0.8,0.7-1.5,1.5-1.5h27c0.8,0,1.5,0.7,1.5,1.5v9     C47,21.3,46.3,22,45.5,22z M19,20h26v-8H19V20z"/></g><g><path class="st0" d="M21.5,30h-3c-0.8,0-1.5-0.7-1.5-1.5v-3c0-0.8,0.7-1.5,1.5-1.5h3c0.8,0,1.5,0.7,1.5,1.5v3     C23,29.3,22.3,30,21.5,30z M19,28h2v-2h-2V28z"/></g><g><path class="st0" d="M29.5,30h-3c-0.8,0-1.5-0.7-1.5-1.5v-3c0-0.8,0.7-1.5,1.5-1.5h3c0.8,0,1.5,0.7,1.5,1.5v3     C31,29.3,30.3,30,29.5,30z M27,28h2v-2h-2V28z"/></g><g><path class="st0" d="M37.5,30h-3c-0.8,0-1.5-0.7-1.5-1.5v-3c0-0.8,0.7-1.5,1.5-1.5h3c0.8,0,1.5,0.7,1.5,1.5v3     C39,29.3,38.3,30,37.5,30z M35,28h2v-2h-2V28z"/></g><g><path class="st0" d="M21.5,38h-3c-0.8,0-1.5-0.7-1.5-1.5v-3c0-0.8,0.7-1.5,1.5-1.5h3c0.8,0,1.5,0.7,1.5,1.5v3     C23,37.3,22.3,38,21.5,38z M19,36h2v-2h-2V36z"/></g><g><path class="st0" d="M29.5,38h-3c-0.8,0-1.5-0.7-1.5-1.5v-3c0-0.8,0.7-1.5,1.5-1.5h3c0.8,0,1.5,0.7,1.5,1.5v3     C31,37.3,30.3,38,29.5,38z M27,36h2v-2h-2V36z"/></g><g><path class="st0" d="M37.5,38h-3c-0.8,0-1.5-0.7-1.5-1.5v-3c0-0.8,0.7-1.5,1.5-1.5h3c0.8,0,1.5,0.7,1.5,1.5v3     C39,37.3,38.3,38,37.5,38z M35,36h2v-2h-2V36z"/></g><g><path class="st0" d="M21.5,46h-3c-0.8,0-1.5-0.7-1.5-1.5v-3c0-0.8,0.7-1.5,1.5-1.5h3c0.8,0,1.5,0.7,1.5,1.5v3     C23,45.3,22.3,46,21.5,46z M19,44h2v-2h-2V44z"/></g><g><path class="st0" d="M29.5,46h-3c-0.8,0-1.5-0.7-1.5-1.5v-3c0-0.8,0.7-1.5,1.5-1.5h3c0.8,0,1.5,0.7,1.5,1.5v3     C31,45.3,30.3,46,29.5,46z M27,44h2v-2h-2V44z"/></g><g><path class="st0" d="M37.5,46h-3c-0.8,0-1.5-0.7-1.5-1.5v-3c0-0.8,0.7-1.5,1.5-1.5h3c0.8,0,1.5,0.7,1.5,1.5v3     C39,45.3,38.3,46,37.5,46z M35,44h2v-2h-2V44z"/></g><g><path class="st0" d="M21.5,54h-3c-0.8,0-1.5-0.7-1.5-1.5v-3c0-0.8,0.7-1.5,1.5-1.5h3c0.8,0,1.5,0.7,1.5,1.5v3     C23,53.3,22.3,54,21.5,54z M19,52h2v-2h-2V52z"/></g><g><path class="st0" d="M29.5,54h-3c-0.8,0-1.5-0.7-1.5-1.5v-3c0-0.8,0.7-1.5,1.5-1.5h3c0.8,0,1.5,0.7,1.5,1.5v3     C31,53.3,30.3,54,29.5,54z M27,52h2v-2h-2V52z"/></g><g><path class="st0" d="M37.5,54h-3c-0.8,0-1.5-0.7-1.5-1.5v-3c0-0.8,0.7-1.5,1.5-1.5h3c0.8,0,1.5,0.7,1.5,1.5v3     C39,53.3,38.3,54,37.5,54z M35,52h2v-2h-2V52z"/></g><g><path class="st0" d="M45.5,30h-3c-0.8,0-1.5-0.7-1.5-1.5v-3c0-0.8,0.7-1.5,1.5-1.5h3c0.8,0,1.5,0.7,1.5,1.5v3     C47,29.3,46.3,30,45.5,30z M43,28h2v-2h-2V28z"/></g><g><path class="st0" d="M45.5,38h-3c-0.8,0-1.5-0.7-1.5-1.5v-3c0-0.8,0.7-1.5,1.5-1.5h3c0.8,0,1.5,0.7,1.5,1.5v3     C47,37.3,46.3,38,45.5,38z M43,36h2v-2h-2V36z"/></g><g><path class="st0" d="M45.5,54h-3c-0.8,0-1.5-0.7-1.5-1.5v-11c0-0.8,0.7-1.5,1.5-1.5h3c0.8,0,1.5,0.7,1.5,1.5v11     C47,53.3,46.3,54,45.5,54z M43,52h2V42h-2V52z"/></g></g></g><g id="Ruler"/><g id="Pencil"/><g id="Clock"/><g id="Document"/><g id="Galeri"/><g id="Storage_Pencil"/><g id="Tras_Can"/><g id="Stempel"/><g id="_x2E_.."/><g id="Clip"/><g id="Board"/></svg>