<?xml version="1.0" ?><svg style="enable-background:new 0 0 64 64;" version="1.1" viewBox="0 0 64 64" xml:space="preserve" xmlns="http://www.w3.org/2000/svg" xmlns:xlink="http://www.w3.org/1999/xlink"><style type="text/css">
	.st0{fill:#231F20;}
	.st1{fill:none;stroke:#231F20;stroke-width:2;stroke-miterlimit:10;}
	.st2{fill:#FFFFFF;}
</style><g id="Grid"/><g id="Proyektor"/><g id="Laptop"/><g id="Papan"/><g id="Kursi"/><g id="Meja"/><g id="Book"/><g id="News"/><g id="Note"/><g id="Calculator"/><g id="Ruler"/><g id="Pencil"/><g id="Clock"/><g id="Document"/><g id="Galeri"/><g id="Storage_Pencil"/><g id="Tras_Can"/><g id="Stempel"><g><g><g><path class="st2" d="M48,47v7c0,1.7-7.2,3-16,3s-16-1.3-16-3v-7c0,1.7,7.2,3,16,3S48,48.7,48,47z"/></g><g><path class="st0" d="M32,58c-2.8,0-17-0.2-17-4v-7h2c0-0.1,0-0.2,0-0.2c0.5,0.7,5.6,2.2,15,2.2s14.5-1.4,15-2.2c0,0,0,0.1,0,0.2      h2v7C49,57.8,34.8,58,32,58z M17,53.9c0.7,0.7,5.8,2.1,15,2.1s14.3-1.4,15-2.1v-4.8C43,50.9,34.2,51,32,51s-11-0.1-15-1.9V53.9z      "/></g></g><g><g><path class="st0" d="M32,51c-2.8,0-17-0.2-17-4c0-2.6,6.3-3.5,12-3.8V40h-1c-0.6,0-1-0.4-1-1V25.5c-3-2.4-4.4-6.2-3.9-10.1      c0.7-4.8,4.7-8.7,9.5-9.3C37.3,5.3,43,10.5,43,17c0,3.3-1.5,6.4-4,8.5V39c0,0.6-0.4,1-1,1h-1v3.2c5.7,0.3,12,1.3,12,3.8      C49,50.8,34.8,51,32,51z M17.2,47c1.1,0.8,6.1,2,14.8,2s13.7-1.2,14.8-2c-0.9-0.6-4.1-1.6-10.9-1.9l-1,0V38h2V24.5l0.2-0.2      c2-1.5,3.4-3.7,3.7-6.3c0.7-6-4.6-11-10.6-9.9c-3.8,0.7-6.7,3.8-7.2,7.6c-0.4,3.3,0.9,6.5,3.5,8.4l0.4,0.3V38h2v7.1l-1,0      C21.3,45.4,18,46.4,17.2,47z"/></g></g><g><g><path class="st0" d="M37.7,16c-0.4,0-0.8-0.3-0.9-0.7c-0.5-1.4-1.6-2.5-3-3c-0.5-0.2-0.8-0.8-0.6-1.3s0.8-0.8,1.3-0.6      c2,0.7,3.6,2.3,4.3,4.3c0.2,0.5-0.1,1.1-0.6,1.3C37.9,16,37.8,16,37.7,16z"/></g></g></g></g><g id="_x2E_.."/><g id="Clip"/><g id="Board"/></svg>